<svg xmlns="http://www.w3.org/2000/svg" width="1920" height="560" viewBox="0 0 1920 560" fill="none"><g clip-path="url(#clip0)"><rect width="1920" height="560" fill="#F7B500"></rect><path d="M-305 100C-305 270.293 -47.153 254.708 67.8617 401.495C222.435 598.768 193.701 832 428 832C832.825 832 1161 504.272 1161 100C1161 -304.272 832.825 -632 428 -632C23.1753 -632 -305 -304.272 -305 100Z" fill="#1681F5"></path><path d="M-49 -10.5C-49 230.399 315.785 208.353 478.5 416C697.18 695.066 656.529 1025 988 1025C1560.72 1025 2025 561.391 2025 -10.5C2025 -582.391 1560.72 -1046 988 -1046C415.281 -1046 -49 -582.391 -49 -10.5Z" fill="#0366D0"></path><path d="M567 184.5C567 441.229 976 491 1109 847C1206.61 1108.28 1451.02 1168 1747 1168C2299.84 1168 2569 737.061 2569 184.5C2569 -368.061 2120.84 -816 1568 -816C1015.16 -816 567 -368.061 567 184.5Z" fill="#0E3C6E"></path><path d="M1371.81 -576.348C1321.57 -388.862 1610.6 -272.462 1638.09 13.5524C1658.27 223.464 1825.11 314.918 2041.32 372.85C2445.15 481.057 2726.1 219.032 2834.22 -184.496C2942.35 -588.024 2702.63 -1002.87 2298.79 -1111.07C1894.96 -1219.28 1479.94 -979.876 1371.81 -576.348Z" fill="#15375C"></path></g><defs><clipPath id="clip0"><rect width="1920" height="560" fill="white"></rect></clipPath></defs></svg>